<svg xmlns="http://www.w3.org/2000/svg" viewBox="0 0 320 200" width="640" height="400" role="img" aria-label="A beaver at a construction site with a short walk to a nearby warehouse and a long faded walk to the district center">
  <defs>
    <radialGradient id="g" cx="0.5" cy="0" r="0.9">
      <stop offset="0" stop-color="#4a2a22"/>
      <stop offset="0.78" stop-color="#0d1510"/>
      <stop offset="1" stop-color="#0d1510"/>
    </radialGradient>
    <clipPath id="r"><rect width="320" height="200" rx="7"/></clipPath>
  </defs>
  <g clip-path="url(#r)">
    <rect width="320" height="200" fill="url(#g)"/>
    <path d="M16 150h288" stroke="#f3ecd6" stroke-opacity=".3" stroke-width="1.5" stroke-linecap="round"/>
    <path d="M62 128C120 92 200 92 268 128" fill="none" stroke="#f3ecd6" stroke-opacity=".35" stroke-width="2" stroke-dasharray="4 6" stroke-linecap="round"/>
    <path d="M62 132C78 118 102 118 118 132" fill="none" stroke="#e8735c" stroke-width="3.4" stroke-linecap="round"/>
    <g fill="none" stroke="#f3ecd6" stroke-opacity=".8" stroke-width="2" stroke-linejoin="round" stroke-linecap="round">
      <path d="M30 150v-34h32v34M30 128h32M46 116V90h30M76 90v10"/>
    </g>
    <rect x="36" y="134" width="20" height="16" fill="#e8735c" fill-opacity=".25" stroke="#e8735c" stroke-width="1.5"/>
    <path d="M110 150v-20l14-10 14 10v20z" fill="#4a3220" stroke="#f3ecd6" stroke-opacity=".7" stroke-width="1.6" stroke-linejoin="round"/>
    <circle cx="124" cy="137" r="4.5" fill="#e8735c"/>
    <path d="M250 150v-40l22-16 22 16v40z" fill="#3b2a1c" stroke="#f3ecd6" stroke-opacity=".5" stroke-width="1.6" stroke-linejoin="round"/>
    <rect x="266" y="130" width="12" height="20" fill="#241509"/>
    <path d="M272 94V76l12 4-12 4" fill="#f3ecd6" fill-opacity=".5" stroke="#f3ecd6" stroke-opacity=".5" stroke-width="1.4" stroke-linejoin="round"/>
    <rect x="30" y="36" width="120" height="12" rx="6" fill="#f3ecd6" fill-opacity=".14" stroke="#f3ecd6" stroke-opacity=".35"/>
    <rect x="30" y="36" width="48" height="12" rx="6" fill="#e8735c" fill-opacity=".85"/>
    <path d="M66 31v22" stroke="#f3ecd6" stroke-opacity=".8" stroke-width="1.6" stroke-dasharray="2 2"/>
    <g font-family="system-ui,sans-serif" font-size="9" font-weight="600">
      <text x="70" y="27" fill="#f3ecd6" fill-opacity=".75">3h buffer</text>
      <text x="30" y="62" fill="#f3ecd6" fill-opacity=".6">Hunger</text>
    </g>
    <circle cx="62" cy="130" r="4.5" fill="#f3ecd6"/>
    <g font-family="system-ui,sans-serif" font-size="10" font-weight="600">
      <circle cx="34" cy="176" r="4" fill="#f3ecd6" fill-opacity=".45"/><text x="43" y="179.5" fill="#f3ecd6" fill-opacity=".7">Without</text>
      <circle cx="100" cy="176" r="4" fill="#e8735c"/><text x="109" y="179.5" fill="#f3ecd6" fill-opacity=".9">With the mod</text>
      <text x="296" y="179.5" text-anchor="end" fill="#f3ecd6" fill-opacity=".5">walk to eat</text>
    </g>
    <rect y="197" width="320" height="3" fill="#e8735c"/>
  </g>
</svg>
